# xmcd
#
# Track frame offsets: 
#        150
#        19080
#        40374
#        60126
#        78058
#        98738
#        115008
#        133389
#        151135
#        169228
#        189703
#        204881
#        221691
#        241322
#        261324
#
# Disc length: 3730 seconds
#
# Revision: 0
# Processed by: cddbd v1.5.2PL0 Copyright (c) Steve Scherf et al.
# Submitted via: ExactAudioCopy v0.99pb4
#
DISCID=c40e900f
DTITLE=รวมศิลปิน - เพลงประกอบละคร ดาวจรัสฟ้า1
DYEAR=2008
DGENRE=Country
TTITLE0=ออนซอนเด
TTITLE1=เปิดผ้าม่านกั้ง
TTITLE2=ฮักแต่ต้องจากลา
TTITLE3=ฮักสาวหมอลำ
TTITLE4=แอบฮักอ้ายแม้ใจเจ็บ
TTITLE5=ดอกสะแบงไกลต้น
TTITLE6=สุดเหงา
TTITLE7=กุหลาบแดง
TTITLE8=หัวใจมีไร่แห้ว
TTITLE9=สาวนาคะนองลำ
TTITLE10=ชมสาวซาวจังหวัด
TTITLE11=ฮักฮ้ายแล้วเด้อ
TTITLE12=ความสมหวังที่ขมขื่น
TTITLE13=กอดครั้งสุดท้าย
TTITLE14=อย่าลืมอีสาน
EXTD=
EXTT0=
EXTT1=
EXTT2=
EXTT3=
EXTT4=
EXTT5=
EXTT6=
EXTT7=
EXTT8=
EXTT9=
EXTT10=
EXTT11=
EXTT12=
EXTT13=
EXTT14=
PLAYORDER=
